<svg width="14" height="15" viewBox="0 0 14 15" fill="none" xmlns="http://www.w3.org/2000/svg">
<path d="M10.684 3.40883L8.56467 0.4375L0.772 6.66283L0.34 6.65817V6.66483H0V14.6648H14V6.66483H13.3587L12.0827 2.93217L10.684 3.40883ZM11.95 6.66483H5.26467L10.244 4.9675L11.2587 4.64283L11.95 6.66483ZM9.36667 3.85817L4.22667 5.61017L8.29733 2.35817L9.36667 3.85817ZM1.33333 12.1108V9.2175C1.61478 9.11817 1.87043 8.9571 2.08154 8.74611C2.29264 8.53512 2.45385 8.27956 2.55333 7.99817H11.4467C11.5461 8.27969 11.7072 8.53538 11.9183 8.74649C12.1295 8.9576 12.3851 9.11876 12.6667 9.21817V12.1115C12.3851 12.2109 12.1295 12.3721 11.9183 12.5832C11.7072 12.7943 11.5461 13.05 11.4467 13.3315H2.55467C2.45479 13.05 2.29331 12.7943 2.08201 12.5831C1.87072 12.3719 1.61493 12.2106 1.33333 12.1108Z" fill="#7D7D7D"/>
</svg>
